<?xml version="1.0" encoding="UTF-8" standalone="no"?>
<!-- Created with Inkscape (http://www.inkscape.org/) -->

<svg
   xmlns:dc="http://purl.org/dc/elements/1.1/"
   xmlns:cc="http://creativecommons.org/ns#"
   xmlns:rdf="http://www.w3.org/1999/02/22-rdf-syntax-ns#"
   xmlns:svg="http://www.w3.org/2000/svg"
   xmlns="http://www.w3.org/2000/svg"
   xmlns:xlink="http://www.w3.org/1999/xlink"
   xmlns:sodipodi="http://sodipodi.sourceforge.net/DTD/sodipodi-0.dtd"
   xmlns:inkscape="http://www.inkscape.org/namespaces/inkscape"
   width="703.53192"
   height="313.12671"
   id="svg2"
   version="1.1"
   inkscape:version="0.48.4 r9939"
   sodipodi:docname="Student_4.svg">
  <sodipodi:namedview
     id="base"
     pagecolor="#ffffff"
     bordercolor="#666666"
     borderopacity="1.0"
     inkscape:pageopacity="0.0"
     inkscape:pageshadow="2"
     inkscape:zoom="1"
     inkscape:cx="352.76597"
     inkscape:cy="118.11975"
     inkscape:document-units="px"
     inkscape:current-layer="layer1"
     showgrid="false"
     inkscape:window-width="1215"
     inkscape:window-height="1000"
     inkscape:window-x="65"
     inkscape:window-y="24"
     inkscape:window-maximized="1"
     fit-margin-top="0"
     fit-margin-left="0"
     fit-margin-right="0"
     fit-margin-bottom="0" />
  <defs
     id="defs4">
    <marker
       inkscape:stockid="Arrow1Mend"
       orient="auto"
       refY="0"
       refX="0"
       id="Arrow1Mend"
       style="overflow:visible">
      <path
         id="path4096"
         d="M 0,0 5,-5 -12.5,0 5,5 0,0 z"
         style="fill-rule:evenodd;stroke:#000000;stroke-width:1pt"
         transform="matrix(-0.4,0,0,-0.4,-4,0)"
         inkscape:connector-curvature="0" />
    </marker>
    <marker
       inkscape:stockid="Arrow2Mend"
       orient="auto"
       refY="0"
       refX="0"
       id="Arrow2Mend"
       style="overflow:visible">
      <path
         id="path4114"
         style="fill-rule:evenodd;stroke-width:0.625;stroke-linejoin:round"
         d="M 8.7185878,4.0337352 -2.2072895,0.01601326 8.7185884,-4.0017078 c -1.7454984,2.3720609 -1.7354408,5.6174519 -6e-7,8.035443 z"
         transform="scale(-0.6,-0.6)"
         inkscape:connector-curvature="0" />
    </marker>
    <marker
       inkscape:stockid="Arrow1Lend"
       orient="auto"
       refY="0"
       refX="0"
       id="Arrow1Lend"
       style="overflow:visible">
      <path
         id="path4090"
         d="M 0,0 5,-5 -12.5,0 5,5 0,0 z"
         style="fill-rule:evenodd;stroke:#000000;stroke-width:1pt"
         transform="matrix(-0.8,0,0,-0.8,-10,0)"
         inkscape:connector-curvature="0" />
    </marker>
    <marker
       inkscape:stockid="Arrow2Lend"
       orient="auto"
       refY="0"
       refX="0"
       id="Arrow2Lend"
       style="overflow:visible">
      <path
         id="path4108"
         style="fill-rule:evenodd;stroke-width:0.625;stroke-linejoin:round"
         d="M 8.7185878,4.0337352 -2.2072895,0.01601326 8.7185884,-4.0017078 c -1.7454984,2.3720609 -1.7354408,5.6174519 -6e-7,8.035443 z"
         transform="matrix(-1.1,0,0,-1.1,-1.1,0)"
         inkscape:connector-curvature="0" />
    </marker>
    <marker
       inkscape:stockid="Arrow1MendI"
       orient="auto"
       refY="0"
       refX="0"
       id="Arrow1MendI"
       style="overflow:visible">
      <path
         id="path5102"
         d="M 0,0 5,-5 -12.5,0 5,5 0,0 z"
         style="fill:#0050ff;fill-rule:evenodd;stroke:#0050ff;stroke-width:1pt"
         transform="matrix(-0.4,0,0,-0.4,-4,0)"
         inkscape:connector-curvature="0" />
    </marker>
    <marker
       inkscape:stockid="Arrow1MendIW"
       orient="auto"
       refY="0"
       refX="0"
       id="Arrow1MendIW"
       style="overflow:visible">
      <path
         id="path5144"
         d="M 0,0 5,-5 -12.5,0 5,5 0,0 z"
         style="fill:#6797ff;fill-rule:evenodd;stroke:#6797ff;stroke-width:1pt"
         transform="matrix(-0.4,0,0,-0.4,-4,0)"
         inkscape:connector-curvature="0" />
    </marker>
  </defs>
  <metadata
     id="metadata7">
    <rdf:RDF>
      <cc:Work
         rdf:about="">
        <dc:format>image/svg+xml</dc:format>
        <dc:type
           rdf:resource="http://purl.org/dc/dcmitype/StillImage" />
        <dc:title></dc:title>
      </cc:Work>
    </rdf:RDF>
  </metadata>
  <g
     inkscape:label="Layer 1"
     inkscape:groupmode="layer"
     id="layer1"
     transform="translate(-13.642137,-61.632825)">
    <g
       id="g5181"
       transform="matrix(0.66905427,0,0,0.66905427,4.5148071,22.072466)">
      <image
         width="494"
         height="419"
         xlink:href="file:///home/mpu/Projects/classhub/Mock_Lecture/img/Student_4a_raw.png"
         id="image3244"
         x="22.407701"
         y="104.64268" />
      <rect
         ry="0"
         y="102.71777"
         x="14.142138"
         height="422.84982"
         width="510.53113"
         id="rect5173"
         style="fill:none;stroke:#000000;stroke-width:1;stroke-linecap:round;stroke-linejoin:miter;stroke-miterlimit:4;stroke-opacity:1;stroke-dasharray:2, 1;stroke-dashoffset:0" />
    </g>
    <g
       id="g5177"
       transform="matrix(0.66905427,0,0,0.66905427,4.5148071,19.441066)">
      <image
         width="496"
         height="426"
         xlink:href="file:///home/mpu/Projects/classhub/Mock_Lecture/img/Student_4b_raw.png"
         id="image3306"
         x="561.40857"
         y="105.0757" />
      <rect
         style="fill:none;stroke:#000000;stroke-width:1;stroke-linecap:round;stroke-linejoin:miter;stroke-miterlimit:4;stroke-opacity:1;stroke-dasharray:2, 1;stroke-dashoffset:0"
         id="rect5175"
         width="510.53113"
         height="422.84982"
         x="554.14294"
         y="106.65079"
         ry="0" />
    </g>
    <path
       sodipodi:type="arc"
       style="fill:none;stroke:#0044cd;stroke-width:4;stroke-linecap:round;stroke-linejoin:round;stroke-miterlimit:4;stroke-opacity:0.64840178;stroke-dasharray:8, 8;stroke-dashoffset:0"
       id="path3309"
       sodipodi:cx="168"
       sodipodi:cy="122.36218"
       sodipodi:rx="58"
       sodipodi:ry="33"
       d="m 226,122.36218 c 0,18.2254 -25.96748,33 -58,33 -32.03252,0 -58,-14.7746 -58,-33 0,-18.22539 25.96748,-32.999997 58,-32.999997 32.03252,0 58,14.774607 58,32.999997 z"
       transform="matrix(0.60069906,0,0,0.6908354,11.984157,24.087948)" />
    <path
       transform="matrix(0.60069906,0,0,0.6908354,374.59725,24.087948)"
       d="m 226,122.36218 a 58,33 0 1 1 -116,0 58,33 0 1 1 116,0 z"
       sodipodi:ry="33"
       sodipodi:rx="58"
       sodipodi:cy="122.36218"
       sodipodi:cx="168"
       id="path4079"
       style="fill:none;stroke:#0044cd;stroke-width:4;stroke-linecap:round;stroke-linejoin:round;stroke-miterlimit:4;stroke-opacity:0.64840178;stroke-dasharray:8, 8;stroke-dashoffset:0"
       sodipodi:type="arc" />
    <path
       style="fill:none;stroke:#6797ff;stroke-width:4.01432562;stroke-linecap:butt;stroke-linejoin:miter;stroke-miterlimit:4;stroke-opacity:1;stroke-dasharray:12.04297692, 12.04297692;stroke-dashoffset:0;marker-end:url(#Arrow1MendIW)"
       d="m 145.68526,100.92595 c 0,0 126.40371,-76.826447 300.35782,-9.921024"
       id="path4081"
       inkscape:connector-curvature="0"
       sodipodi:nodetypes="cc" />
  </g>
</svg>
